<svg xmlns="http://www.w3.org/2000/svg" width="900" height="480" viewBox="0 0 900 480">
<rect width="100%" height="100%" fill="white"/>
<style>text{font-family:Arial,sans-serif;fill:#222}.axis{stroke:#333;stroke-width:1.2}.grid{stroke:#ddd;stroke-width:1}.win{stroke:#1f77b4}.draw{stroke:#ff7f0e}.loss{stroke:#2ca02c}.line{fill:none;stroke-width:3}</style>
<text x="450" y="26" text-anchor="middle" font-size="20" font-weight="600">Conditional Live Win / Draw / Loss Probabilities</text>
<line class="grid" x1="70" y1="420" x2="870" y2="420"/><text x="58" y="425" text-anchor="end" font-size="12">0.00</text>
<line class="grid" x1="70" y1="326.2" x2="870" y2="326.2"/><text x="58" y="331.2" text-anchor="end" font-size="12">0.25</text>
<line class="grid" x1="70" y1="232.5" x2="870" y2="232.5"/><text x="58" y="237.5" text-anchor="end" font-size="12">0.50</text>
<line class="grid" x1="70" y1="138.8" x2="870" y2="138.8"/><text x="58" y="143.8" text-anchor="end" font-size="12">0.75</text>
<line class="grid" x1="70" y1="45" x2="870" y2="45"/><text x="58" y="50" text-anchor="end" font-size="12">1.00</text>
<line class="grid" x1="70" y1="45" x2="70" y2="420"/><text x="70" y="444" text-anchor="middle" font-size="12">0</text>
<line class="grid" x1="203.3" y1="45" x2="203.3" y2="420"/><text x="203.3" y="444" text-anchor="middle" font-size="12">15</text>
<line class="grid" x1="336.7" y1="45" x2="336.7" y2="420"/><text x="336.7" y="444" text-anchor="middle" font-size="12">30</text>
<line class="grid" x1="470" y1="45" x2="470" y2="420"/><text x="470" y="444" text-anchor="middle" font-size="12">45</text>
<line class="grid" x1="603.3" y1="45" x2="603.3" y2="420"/><text x="603.3" y="444" text-anchor="middle" font-size="12">60</text>
<line class="grid" x1="736.7" y1="45" x2="736.7" y2="420"/><text x="736.7" y="444" text-anchor="middle" font-size="12">75</text>
<line class="grid" x1="870" y1="45" x2="870" y2="420"/><text x="870" y="444" text-anchor="middle" font-size="12">90</text>
<line class="axis" x1="70" y1="45" x2="70" y2="420"/><line class="axis" x1="70" y1="420" x2="870" y2="420"/>
<polyline class="line win" points="70,219.9 114.4,223.8 158.9,228 203.3,232.6 247.8,237.5 292.2,242.8 336.7,248.7 381.1,255.2 425.6,262.3 470,270.3 514.4,279.2 558.9,289.3 603.3,300.8 647.8,314 692.2,329.2 736.7,346.8 781.1,367.3 825.6,391.5 870,420"/>
<polyline class="line draw" points="70,321.3 114.4,317.3 158.9,312.8 203.3,307.9 247.8,302.4 292.2,296.3 336.7,289.4 381.1,281.6 425.6,272.7 470,262.5 514.4,250.8 558.9,237.2 603.3,221.5 647.8,203 692.2,181.3 736.7,155.6 781.1,125.1 825.6,88.7 870,45"/>
<polyline class="line loss" points="70,343.8 114.4,343.9 158.9,344.1 203.3,344.5 247.8,345.1 292.2,345.9 336.7,346.9 381.1,348.3 425.6,350 470,352.2 514.4,355 558.9,358.4 603.3,362.7 647.8,368 692.2,374.5 736.7,382.6 781.1,392.6 825.6,404.8 870,420"/>
<text x="450" y="468" text-anchor="middle" font-size="14">Match minute (conditional on score remaining 0–0)</text>
<text x="18" y="240" text-anchor="middle" transform="rotate(-90 18 240)" font-size="14">Final outcome probability</text>
<line class="win" x1="675" y1="65" x2="705" y2="65" stroke-width="3"/><text x="713" y="70" font-size="13">Win</text>
<line class="draw" x1="750" y1="65" x2="780" y2="65" stroke-width="3"/><text x="788" y="70" font-size="13">Draw</text>
<line class="loss" x1="835" y1="65" x2="865" y2="65" stroke-width="3"/><text x="873" y="70" font-size="13">Loss</text>
</svg>